<svg xmlns="http://www.w3.org/2000/svg" xmlns:xlink="http://www.w3.org/1999/xlink" width="20" height="20" viewBox="0 0 211 211" fill="none">
<path d="M206 105.5C206 161.005 161.005 206 105.5 206C49.9954 206 5 161.005 5 105.5C5 49.9954 49.9954 5 105.5 5C161.005 5 206 49.9954 206 105.5Z" stroke="rgba(145, 145, 145, 1)" stroke-width="10"      fill="#CCCCCC" fill-opacity="0">
</path>
<g >
<path     fill="#919191"  d="M49.208 107.936L49.208 91.664L56.12 91.664C62.96 91.664 66.704 93.608 66.704 99.368C66.704 105.056 62.96 107.936 56.12 107.936L49.208 107.936ZM67.568 136.52L79.448 136.52L66.992 114.704C73.112 112.328 77.144 107.36 77.144 99.368C77.144 87.128 68.288 83.168 57.056 83.168L38.552 83.168L38.552 136.52L49.208 136.52L49.208 116.36L56.624 116.36L67.568 136.52ZM80.816 136.52L91.616 136.52L95.36 122.84L112.568 122.84L116.312 136.52L127.544 136.52L110.48 83.168L97.88 83.168L80.816 136.52ZM97.664 114.56L99.248 108.728C100.832 103.184 102.344 97.136 103.784 91.304L104.072 91.304C105.656 96.992 107.096 103.184 108.752 108.728L110.336 114.56L97.664 114.56ZM156.704 137.528C164.048 137.528 170.384 134.72 174.056 131.12L174.056 107.072L155.048 107.072L155.048 115.784L164.48 115.784L164.48 126.296C163.04 127.592 160.376 128.312 157.856 128.312C147.344 128.312 142.088 121.328 142.088 109.736C142.088 98.288 148.136 91.376 157.064 91.376C161.816 91.376 164.84 93.32 167.504 95.84L173.192 89.072C169.736 85.544 164.408 82.232 156.704 82.232C142.52 82.232 131.144 92.528 131.144 110.096C131.144 127.88 142.232 137.528 156.704 137.528Z">
</path>
</g>
</svg>
