<svg xmlns="http://www.w3.org/2000/svg" xmlns:xlink="http://www.w3.org/1999/xlink" width="216" height="216" viewBox="0 0 216 216" fill="none">
<path d="M208.5 108C208.5 163.505 163.505 208.5 108 208.5C52.4954 208.5 7.5 163.505 7.5 108C7.5 52.4954 52.4954 7.5 108 7.5C163.505 7.5 208.5 52.4954 208.5 108Z" stroke="rgba(120, 120, 120, 1)" stroke-width="15"      fill="#787878" fill-opacity="0">
</path>
<g >
<path     fill="#787878"  d="M45.62 111.54L45.62 93.46L53.3 93.46C60.9 93.46 65.06 95.62 65.06 102.02C65.06 108.34 60.9 111.54 53.3 111.54L45.62 111.54ZM66.02 143.3L79.22 143.3L65.38 119.06C72.18 116.42 76.66 110.9 76.66 102.02C76.66 88.42 66.82 84.02 54.34 84.02L33.78 84.02L33.78 143.3L45.62 143.3L45.62 120.9L53.86 120.9L66.02 143.3ZM80.74 143.3L92.74 143.3L96.9 128.1L116.02 128.1L120.18 143.3L132.66 143.3L113.7 84.02L99.7 84.02L80.74 143.3ZM99.46 118.9L101.22 112.42C102.98 106.26 104.66 99.54 106.26 93.06L106.58 93.06C108.34 99.38 109.94 106.26 111.78 112.42L113.54 118.9L99.46 118.9ZM165.06 144.42C173.22 144.42 180.26 141.3 184.34 137.3L184.34 110.58L163.22 110.58L163.22 120.26L173.7 120.26L173.7 131.94C172.1 133.38 169.14 134.18 166.34 134.18C154.66 134.18 148.82 126.42 148.82 113.54C148.82 100.82 155.54 93.14 165.46 93.14C170.74 93.14 174.1 95.3 177.06 98.1L183.38 90.58C179.54 86.66 173.62 82.98 165.06 82.98C149.3 82.98 136.66 94.42 136.66 113.94C136.66 133.7 148.98 144.42 165.06 144.42Z">
</path>
</g>
</svg>
